<?xml version="1.0" encoding="utf-8"?>
<!-- Generator: Adobe Illustrator 16.0.0, SVG Export Plug-In . SVG Version: 6.00 Build 0)  -->
<!DOCTYPE svg PUBLIC "-//W3C//DTD SVG 1.1//EN" "http://www.w3.org/Graphics/SVG/1.1/DTD/svg11.dtd">
<svg version="1.1"
	 id="svg2232" xmlns:cc="http://web.resource.org/cc/" xmlns:svg="http://www.w3.org/2000/svg" xmlns:inkscape="http://www.inkscape.org/namespaces/inkscape" xmlns:rdf="http://www.w3.org/1999/02/22-rdf-syntax-ns#" xmlns:dc="http://purl.org/dc/elements/1.1/" xmlns:sodipodi="http://sodipodi.sourceforge.net/DTD/sodipodi-0.dtd" sodipodi:version="0.32" sodipodi:docname="Soccer Field Transparant.svg" inkscape:output_extension="org.inkscape.output.svg.inkscape" sodipodi:docbase="/home/phsi/Drawing" inkscape:version="0.45.1"
	 xmlns="http://www.w3.org/2000/svg" xmlns:xlink="http://www.w3.org/1999/xlink" x="0px" y="0px" width="1300px" height="1684px"
	 viewBox="-424 -500 1300 1684" enable-background="new -424 -500 1300 1684" xml:space="preserve">
<sodipodi:namedview  bordercolor="#666666" pagecolor="#ffffff" inkscape:zoom="0.76745525" inkscape:cx="226.92898" id="base" borderopacity="1.0" inkscape:cy="344.20533" inkscape:window-height="1009" inkscape:window-x="0" inkscape:window-width="1280" inkscape:current-layer="svg2232" inkscape:window-y="0" inkscape:pageopacity="0.0" inkscape:pageshadow="2">
	</sodipodi:namedview>
<g id="g2174" opacity="0.65">
	
		<rect id="rect7516" x="-424" y="-504.872" fill="#0EBA00" stroke="#FFFFFF" stroke-width="3" stroke-linecap="square" width="1300" height="1689"/>
	<path id="path2239" sodipodi:nodetypes="ccccc" fill="none" stroke="#FFFFFF" stroke-width="3" d="M-295.194-436.152v1551.938
		H748.492V-436.53L-295.194-436.152z"/>
	<path id="path3116" fill="none" stroke="#FFFFFF" stroke-width="3" d="M-67.623-435.302v239.832h588.541v-240.963"/>
	<path id="path3118" fill="none" stroke="#FFFFFF" stroke-width="3" d="M93.858-436.433v80.188h265.581v-80.188"/>
	<path id="path3120" fill="none" stroke="#FFFFFF" stroke-width="3" d="M-67.623,1114.033V874.2h588.541v240.966"/>
	<path id="path3122" fill="none" stroke="#FFFFFF" stroke-width="3" d="M93.858,1115.166v-80.189h265.581v80.189"/>
	<path id="path3124" sodipodi:nodetypes="cc" fill="none" stroke="#FFFFFF" stroke-width="3" d="M-295.492,339.628H748.086"/>
	
		<path id="path3142" sodipodi:cy="324.54947" sodipodi:ry="54.789246" sodipodi:rx="54.789246" sodipodi:type="arc" sodipodi:cx="173.5954" fill="none" stroke="#FFFFFF" stroke-width="3" d="
		M359.781,332.282c0,73.525-59.605,133.133-133.133,133.133S93.515,405.808,93.515,332.282c0-73.53,59.606-133.134,133.134-133.134
		S359.781,258.752,359.781,332.282L359.781,332.282z"/>
	<path id="path3994" fill="none" stroke="#FFFFFF" stroke-width="3" stroke-linecap="square" d="M173.393,1118.008v35.711h106.51
		v-36.325"/>
	<path id="path4869" fill="none" stroke="#FFFFFF" stroke-width="3" stroke-linecap="square" d="M173.393-438.735v-35.709h106.51
		v36.324"/>
	
		<path id="path5748" sodipodi:cy="579.56464" sodipodi:ry="1.8046744" sodipodi:rx="1.8046744" sodipodi:type="arc" sodipodi:cx="226.26105" stroke="#FFFFFF" stroke-width="3" stroke-linecap="square" d="
		M231.033,951.945c0.004,2.423-1.955,4.389-4.378,4.393c-2.421,0.006-4.389-1.957-4.394-4.378c0-0.005,0-0.01,0-0.015
		c-0.002-2.42,1.957-4.388,4.379-4.392c2.422-0.003,4.389,1.958,4.393,4.378C231.033,951.937,231.033,951.94,231.033,951.945z"/>
	
		<path id="path5750" sodipodi:cy="579.56464" sodipodi:ry="1.8046744" sodipodi:rx="1.8046744" sodipodi:type="arc" sodipodi:cx="226.26105" stroke="#FFFFFF" stroke-width="3" stroke-linecap="square" d="
		M231.033-273.04c0.004,2.421-1.955,4.388-4.378,4.392c-2.421,0.003-4.389-1.957-4.394-4.378c0-0.005,0-0.01,0-0.013
		c-0.002-2.423,1.957-4.389,4.379-4.393c2.422-0.003,4.389,1.957,4.393,4.378C231.033-273.05,231.033-273.045,231.033-273.04z"/>
	
		<path id="path5756" sodipodi:cy="624.52228" sodipodi:ry="5.384078" sodipodi:open="true" sodipodi:start="4.7588671" sodipodi:rx="5.384078" sodipodi:end="6.247795" sodipodi:type="arc" sodipodi:cx="27.785688" fill="none" stroke="#FFFFFF" stroke-width="3" stroke-linecap="square" d="
		M-294.407,1102.556c6.803,0.314,12.225,5.799,12.466,12.604"/>
	
		<path id="path6631" sodipodi:cy="624.52228" sodipodi:ry="5.384078" sodipodi:open="true" sodipodi:start="4.7588671" sodipodi:rx="5.384078" sodipodi:end="6.247795" sodipodi:type="arc" sodipodi:cx="27.785688" fill="none" stroke="#FFFFFF" stroke-width="3" stroke-linecap="square" d="
		M-292.98-421.219c6.804-0.315,12.227-5.799,12.468-12.605"/>
	
		<path id="path6633" sodipodi:cy="624.52228" sodipodi:ry="5.384078" sodipodi:open="true" sodipodi:start="4.7588671" sodipodi:rx="5.384078" sodipodi:end="6.247795" sodipodi:type="arc" sodipodi:cx="27.785688" fill="none" stroke="#FFFFFF" stroke-width="3" stroke-linecap="square" d="
		M746.15-421.639c-6.805-0.316-12.23-5.799-12.469-12.605"/>
	
		<path id="path6635" sodipodi:cy="624.52228" sodipodi:ry="5.384078" sodipodi:open="true" sodipodi:start="4.7588671" sodipodi:rx="5.384078" sodipodi:end="6.247795" sodipodi:type="arc" sodipodi:cx="27.785688" fill="none" stroke="#FFFFFF" stroke-width="3" stroke-linecap="square" d="
		M746.24,1100.961c-6.805,0.315-12.229,5.799-12.469,12.605"/>
	
		<path id="path6637" sodipodi:cy="324.54947" sodipodi:ry="54.789246" sodipodi:open="true" sodipodi:start="3.7647358" sodipodi:rx="54.789246" sodipodi:end="5.6631609" sodipodi:type="arc" sodipodi:cx="173.5954" fill="none" stroke="#FFFFFF" stroke-width="3" d="
		M118.418,873.79c42.908-59.709,126.1-73.324,185.805-30.418c11.834,8.506,22.189,18.895,30.656,30.755"/>
	
		<path id="path6641" sodipodi:cy="324.54947" sodipodi:ry="54.789246" sodipodi:open="true" sodipodi:start="3.7647358" sodipodi:rx="54.789246" sodipodi:end="5.6631609" sodipodi:type="arc" sodipodi:cx="173.5954" fill="none" stroke="#FFFFFF" stroke-width="3" d="
		M118.418-194.886c42.908,59.708,126.1,73.326,185.805,30.416c11.834-8.505,22.189-18.894,30.656-30.752"/>
</g>
</svg>
