<?xml version="1.0" encoding="utf-8"?>
<!-- Generator: Adobe Illustrator 16.0.0, SVG Export Plug-In . SVG Version: 6.00 Build 0)  -->
<!DOCTYPE svg PUBLIC "-//W3C//DTD SVG 1.1//EN" "http://www.w3.org/Graphics/SVG/1.1/DTD/svg11.dtd">
<svg version="1.1" id="Layer_1" xmlns="http://www.w3.org/2000/svg" xmlns:xlink="http://www.w3.org/1999/xlink" x="0px" y="0px"
	 width="512px" height="512px" viewBox="0 0 512 512" enable-background="new 0 0 512 512" xml:space="preserve">
<g>
	<path id="path2916" fill="#FFFFFF" d="M505.686,255.628c0,137.804-111.713,249.514-249.514,249.514
		C118.37,505.142,6.66,393.432,6.66,255.628C6.66,117.825,118.37,6.116,256.172,6.116
		C393.973,6.116,505.686,117.825,505.686,255.628z"/>
	<defs>
		<filter id="Adobe_OpacityMaskFilter" filterUnits="userSpaceOnUse" x="-5" y="-1.973" width="508.51" height="522.09">
			<feColorMatrix  type="matrix" values="1 0 0 0 0  0 1 0 0 0  0 0 1 0 0  0 0 0 1 0"/>
		</filter>
	</defs>
	<mask maskUnits="userSpaceOnUse" x="-5" y="-1.973" width="508.51" height="522.09" id="mask2920_1_">
		<path id="path2918_1_" fill="#FFFFFF" filter="url(#Adobe_OpacityMaskFilter)" d="M505.686,255.628
			c0,137.804-111.713,249.514-249.514,249.514C118.37,505.142,6.66,393.432,6.66,255.628C6.66,117.825,118.37,6.116,256.172,6.116
			C393.973,6.116,505.686,117.825,505.686,255.628z"/>
	</mask>
	<g id="g2893" mask="url(#mask2920_1_)">
		<g id="g2878">
			<path id="path623" fill="none" stroke="#010101" stroke-width="10" d="M494.523,176.353
				c-7.381-11.501-14.506-16.811-28.566-20.347"/>
			<path id="path1939" fill="none" stroke="#010101" stroke-width="10" d="M77.229,68.915l22.682,23.102"/>
			<path id="path1941" fill="none" stroke="#010101" stroke-width="10" d="M73.869,147.254
				C22.359,184.145,9.81,258.998,11.7,258.569"/>
			<path id="path1943" fill="none" stroke="#010101" stroke-width="10" d="M139.397,152.715
				c-5.311,39.211,8.824,82.185,38.225,128.116"/>
			<path id="path1945" fill="none" stroke="#010101" stroke-width="10" d="M42.154,340.27c24.24,24.233,56.459,20.515,86.741,21.213
				"/>
			<path id="path1947" fill="none" stroke="#010101" stroke-width="10" d="M202.619,437.693
				c-5.245,13.865-3.889,33.073-0.891,53.611"/>
			<path id="path1949" fill="none" stroke="#010101" stroke-width="10" d="M166.382,40.426C185.666,21.118,227.03,8.657,281.033,3"
				/>
			<path id="path1951" fill="none" stroke="#010101" stroke-width="10" d="M391.971,76.811
				c-13.418-24.994-37.062-44.635-62.08-63.554"/>
			<path id="path1953" fill="none" stroke="#010101" stroke-width="10" d="M208.263,83.495c29.643,3.338,83.147,7.729,125.639,31.78
				"/>
			<path id="path1964" fill="none" stroke="#010101" stroke-width="10" d="M367.066,201.021
				c-25.41,35.037-56.082,67.735-91.572,98.291"/>
			<path id="path1966" fill="none" stroke="#010101" stroke-width="10" d="M291.455,392.985
				c32.525,18.147,68.152,25.951,111.316,18.901"/>
			<path id="path1968" fill="none" stroke="#010101" stroke-width="10" d="M444.355,222.023
				c16.602,31.171,19.039,75.42,21.424,119.715"/>
			<path id="path1970" fill="none" stroke="#010101" stroke-width="10" d="M459.896,155.235c13.678,0.46,26.93,7.686,39.486,26.043"
				/>
		</g>
		<g id="g2870">
			<path id="path1972" fill="#53BA5F" d="M60.847,157.335c34.702,6.082,48.982,3.63,77.708,6.301
				c16.983-22.283,45.808-50.486,76.031-79.39c-12.473-19.465-24.247-39.387-39.065-51.667
				c-37.62,12.754-64.411,28.46-89.892,44.525C69.638,104.954,61.158,131.727,60.847,157.335z"/>
			<path id="path2860" fill="#53BA5F" d="M325.9,111.549c11.412,31.369,21.229,59.539,35.703,97.032
				c29.787,7.864,61.543,17.308,86.115,21.002c7.896-15.856,13.121-46.415,18.9-73.929c-19.625-30.442-47.617-56.701-76.031-82.75
				C369.695,80.441,347.906,95.131,325.9,111.549z"/>
			<path id="path2862" fill="#53BA5F" d="M172.582,273.271c38.299,6.3,75.252,12.601,111.313,18.9
				c11.15,35.004,12.592,70.01,16.385,105.015c-27.574,22.911-65.595,30.146-99.135,44.104
				c-39.025-25.227-54.915-53.344-77.29-80.649C136.704,331.093,150.876,301.711,172.582,273.271z"/>
			<path id="path2864" fill="#53BA5F" d="M-5,242.698c0.054,1.761,13.521,3.74,18.417,1.781
				c5.622,35.985,12.985,70.814,32.672,97.425c-3.854,18.854-0.226,33.975,5.346,48.117c-34.14,9.567-31.172,14.742-44.553,20.79"/>
			<path id="path2866" fill="#53BA5F" d="M120.345,470.516c32.446,8.588,56.083,25.264,81.086,16.632
				c7.354,10.416,27.7,17.951,80.792,20.199l-144.354,12.771"/>
			<path id="path2868" fill="#53BA5F" d="M496.652,349.93c-9.471-6.981-19.27-13.634-31.502-17.852
				c-24.365,32.458-48.727,69.405-73.092,81.068c-0.449,20.011-3.566,37.885-12.391,51.194c18.398,1.242,37.617,1.176,58.807-2.048"
				/>
		</g>
	</g>
	<path id="path2923" fill="none" stroke="#010101" stroke-width="10" stroke-linecap="round" stroke-linejoin="round" d="
		M505.686,255.628c0,137.804-111.713,249.514-249.514,249.514C118.37,505.142,6.66,393.432,6.66,255.628
		C6.66,117.825,118.37,6.116,256.172,6.116C393.973,6.116,505.686,117.825,505.686,255.628z"/>
</g>
</svg>
