<?xml version="1.0" encoding="utf-8"?>
<!-- Generator: Adobe Illustrator 16.0.0, SVG Export Plug-In . SVG Version: 6.00 Build 0)  -->
<!DOCTYPE svg PUBLIC "-//W3C//DTD SVG 1.1//EN" "http://www.w3.org/Graphics/SVG/1.1/DTD/svg11.dtd">
<svg version="1.1" id="Layer_1" xmlns="http://www.w3.org/2000/svg" xmlns:xlink="http://www.w3.org/1999/xlink" x="0px" y="0px"
	 width="1291.23px" height="1683.781px" viewBox="-117.502 0 1291.23 1683.781"
	 enable-background="new -117.502 0 1291.23 1683.781" xml:space="preserve">
<g id="Layer_2">
	<rect fill="#109B49" width="1056.227" height="1683.781"/>
</g>
<g id="Layer_1_1_">
	<g>
		<path fill="#FFFFFF" d="M1056.227,0v1683.781H0V0H1056.227z M1048.55,1676.087V7.696H7.677v1668.392H1048.55z"/>
		<path fill="#FFFFFF" d="M714.33,847.773c0,103.729-84.174,188.115-187.638,188.115s-187.638-84.387-187.638-188.115
			c0-103.723,84.174-188.114,187.638-188.114S714.33,744.051,714.33,847.773z M347.584,847.773
			c0,99.016,80.347,179.562,179.107,179.562c98.764,0,179.11-80.547,179.11-179.562c0-99.01-80.348-179.561-179.11-179.561
			C427.932,668.212,347.584,748.763,347.584,847.773z"/>
		<path fill="#FFFFFF" d="M847.439,0v324.75H204.184V0H847.439z M839.764,315.516V7.696H211.861v307.82H839.764L839.764,315.516z"/>
		<g>
			<path fill="#FFFFFF" d="M665.263,315.516l-7.491,7.327c-35.27,34.543-81.822,53.566-131.079,53.566
				c-49.258,0-95.811-19.023-131.082-53.569l-7.487-7.324H665.263z M409.513,324.75c32.566,27.704,73.773,43.804,117.179,43.804
				c43.404,0,84.608-16.1,117.179-43.804H409.513z"/>
		</g>
		<g>
			<path fill="#FFFFFF" d="M665.881,1368.267H387.504l8.228-7.971c38.077-34.469,84.588-53.713,130.962-53.713
				c46.376,0,92.885,19.375,130.96,53.844L665.881,1368.267z M410.119,1359.031h233.148
				c-34.759-27.707-75.763-43.805-116.572-43.805C485.881,1315.226,444.881,1331.324,410.119,1359.031z"/>
		</g>
		<path fill="#FFFFFF" d="M847.439,1359.031v324.75H204.184v-324.75H847.439z M839.764,1676.087v-307.82H211.861v307.82H839.764z"/>
		<path fill="#FFFFFF" d="M521.717,828.535c-7.063,0-12.794,5.74-12.794,12.825c0,7.084,5.729,12.833,12.794,12.833
			c7.067,0,12.793-5.746,12.793-12.833C534.51,834.275,528.785,828.535,521.717,828.535z"/>
		<g>
			<path fill="#FFFFFF" d="M724.622,0v200.083h-397.62V0H724.622z M715.409,192.39V7.696H336.21V192.39H715.409z"/>
			<ellipse fill="#FFFFFF" cx="521.717" cy="242.819" rx="12.794" ry="12.826"/>
		</g>
		<g>
			<path fill="#FFFFFF" d="M724.622,1483.699v200.082h-397.62v-200.082H724.622z M715.409,1676.087V1491.39H336.21v184.697H715.409z
				"/>
			<path fill="#FFFFFF" d="M530.246,1452.726c7.065,0,12.797-5.736,12.797-12.824c0-7.084-5.73-12.824-12.797-12.824
				c-7.064,0-12.794,5.74-12.794,12.824C517.452,1446.988,523.181,1452.726,530.246,1452.726z"/>
		</g>
		<rect y="837.276" fill="#FFFFFF" width="1056.227" height="9.229"/>
		<path fill="#FFFFFF" d="M1051.582,62.56l-0.708,8.517c-0.55-0.045-55.051-5.313-55.799-67.621l8.528-0.101
			C1004.261,57.974,1049.646,62.396,1051.582,62.56z"/>
		<path fill="#FFFFFF" d="M1051.587,1619.447c-1.935,0.168-47.329,4.801-47.983,59.207l-8.528-0.104
			c0.748-62.311,55.249-67.58,55.799-67.627l0.708,8.523l-0.354-4.264L1051.587,1619.447z"/>
		<path fill="#FFFFFF" d="M58.31,1678.55l-8.53,0.105c-0.654-54.625-46.04-59.047-47.974-59.207l0.709-8.523
			C3.066,1610.97,57.56,1616.24,58.31,1678.55z"/>
		<path fill="#FFFFFF" d="M58.31,3.456C57.56,65.764,3.066,71.032,2.515,71.077L1.806,62.56l0.351,4.257L1.796,62.56
			c1.931-0.168,47.33-4.8,47.984-59.206L58.31,3.456z"/>
	</g>
</g>
</svg>
