<?xml version="1.0" encoding="utf-8"?>
<!-- Generator: Adobe Illustrator 16.0.0, SVG Export Plug-In . SVG Version: 6.00 Build 0)  -->
<!DOCTYPE svg PUBLIC "-//W3C//DTD SVG 1.1//EN" "http://www.w3.org/Graphics/SVG/1.1/DTD/svg11.dtd">
<svg version="1.1" id="Layer_1" xmlns="http://www.w3.org/2000/svg" xmlns:xlink="http://www.w3.org/1999/xlink" x="0px" y="0px"
	 width="512px" height="512px" viewBox="0 0 512 512" enable-background="new 0 0 512 512" xml:space="preserve">
<g>
	<path id="path2916" fill="#FFFFFF" d="M496.325,254.083c0,130.96-106.165,237.123-237.123,237.123
		c-130.958,0-237.122-106.162-237.122-237.123c0-130.959,106.163-237.122,237.122-237.122
		C390.16,16.961,496.325,123.123,496.325,254.083z"/>
	<defs>
		<filter id="Adobe_OpacityMaskFilter" filterUnits="userSpaceOnUse" x="11" y="9.027" width="483.463" height="496.41">
			<feColorMatrix  type="matrix" values="1 0 0 0 0  0 1 0 0 0  0 0 1 0 0  0 0 0 1 0"/>
		</filter>
	</defs>
	<mask maskUnits="userSpaceOnUse" x="11" y="9.027" width="483.463" height="496.41" id="mask2920_1_">
		<path id="path2918_1_" fill="#FFFFFF" filter="url(#Adobe_OpacityMaskFilter)" d="M496.325,254.083
			c0,130.96-106.165,237.123-237.123,237.123c-130.958,0-237.122-106.162-237.122-237.123
			c0-130.959,106.163-237.122,237.122-237.122C390.16,16.961,496.325,123.123,496.325,254.083z"/>
	</mask>
	<g id="g2893" mask="url(#mask2920_1_)">
		<g id="g2878">
			<path id="path623" fill="none" stroke="#010101" stroke-width="10" d="M485.718,178.744
				c-7.015-10.93-13.786-15.977-27.148-19.337"/>
			<path id="path1939" fill="none" stroke="#010101" stroke-width="10" d="M89.146,76.641l21.556,21.955"/>
			<path id="path1941" fill="none" stroke="#010101" stroke-width="10" d="M85.952,151.091
				C37,186.149,25.075,257.285,26.871,256.878"/>
			<path id="path1943" fill="none" stroke="#010101" stroke-width="10" d="M148.226,156.28
				c-5.047,37.264,8.386,78.103,36.327,121.754"/>
			<path id="path1945" fill="none" stroke="#010101" stroke-width="10" d="M55.812,334.521c23.037,23.03,53.656,19.496,82.434,20.16
				"/>
			<path id="path1947" fill="none" stroke="#010101" stroke-width="10" d="M208.309,427.106
				c-4.985,13.177-3.696,31.431-0.847,50.949"/>
			<path id="path1949" fill="none" stroke="#010101" stroke-width="10" d="M173.872,49.567
				C192.198,31.218,231.508,19.376,282.829,14"/>
			<path id="path1951" fill="none" stroke="#010101" stroke-width="10" d="M388.258,84.146
				c-12.752-23.753-35.223-42.418-58.998-60.398"/>
			<path id="path1953" fill="none" stroke="#010101" stroke-width="10" d="M213.673,90.497c28.17,3.173,79.018,7.345,119.399,30.202
				"/>
			<path id="path1964" fill="none" stroke="#010101" stroke-width="10" d="M364.59,202.187
				c-24.148,33.296-53.297,64.372-87.024,93.41"/>
			<path id="path1966" fill="none" stroke="#010101" stroke-width="10" d="M292.733,384.619
				c30.91,17.246,64.768,24.662,105.788,17.963"/>
			<path id="path1968" fill="none" stroke="#010101" stroke-width="10" d="M438.041,222.146
				c15.777,29.624,18.094,71.675,20.359,113.771"/>
			<path id="path1970" fill="none" stroke="#010101" stroke-width="10" d="M452.81,158.675c12.999,0.438,25.593,7.305,37.526,24.75"
				/>
		</g>
		<g id="g2870">
			<path id="path1972" fill="#B61F24" d="M73.577,160.671c32.979,5.779,46.55,3.45,73.85,5.988
				c16.14-21.176,43.533-47.979,72.255-75.448c-11.854-18.499-23.043-37.431-37.125-49.101
				c-35.752,12.121-61.213,27.046-85.428,42.314C81.931,110.891,73.873,136.334,73.577,160.671z"/>
			<path id="path2860" fill="#B61F24" d="M325.468,117.159c10.846,29.811,20.175,56.582,33.931,92.214
				c28.308,7.473,58.486,16.448,81.839,19.959c7.504-15.069,12.469-44.11,17.962-70.258c-18.65-28.931-45.253-53.885-72.256-78.641
				C367.088,87.595,346.381,101.556,325.468,117.159z"/>
			<path id="path2862" fill="#B61F24" d="M179.763,270.85c36.397,5.987,71.515,11.976,105.785,17.962
				c10.597,33.266,11.967,66.533,15.571,99.8c-26.205,21.773-62.337,28.648-94.211,41.913
				c-37.087-23.974-52.188-50.694-73.452-76.644C145.667,325.8,159.136,297.877,179.763,270.85z"/>
			<path id="path2864" fill="#B61F24" d="M11,241.795c0.051,1.673,12.849,3.554,17.502,1.693
				c5.343,34.199,12.34,67.297,31.05,92.586c-3.663,17.919-0.215,32.288,5.081,45.728c-32.444,9.093-29.624,14.011-42.34,19.758"/>
			<path id="path2866" fill="#B61F24" d="M130.12,458.299c30.835,8.162,53.297,24.01,77.06,15.807
				c6.989,9.898,26.325,17.06,76.779,19.195l-137.185,12.137"/>
			<path id="path2868" fill="#B61F24" d="M487.74,343.701c-9-6.635-18.312-12.957-29.938-16.965
				c-23.155,30.846-46.307,65.959-69.462,77.043c-0.427,19.017-3.39,36.003-11.775,48.651c17.485,1.181,35.749,1.117,55.887-1.946"
				/>
		</g>
	</g>
	<path id="path2923" fill="none" stroke="#010101" stroke-width="10" stroke-linecap="round" stroke-linejoin="round" d="
		M496.325,254.083c0,130.96-106.165,237.123-237.123,237.123c-130.958,0-237.122-106.162-237.122-237.123
		c0-130.959,106.163-237.122,237.122-237.122C390.16,16.961,496.325,123.123,496.325,254.083z"/>
</g>
</svg>
